<svg xmlns="http://www.w3.org/2000/svg" viewBox="0 0 512 512">
  <rect width="512" height="512" rx="96" fill="#d83f45"/>
  <!-- car body -->
  <rect x="80" y="270" width="352" height="90" rx="14" fill="#fff"/>
  <!-- car roof -->
  <path d="M168 270 L202 194 C210 176 228 164 248 164 L264 164 C284 164 302 176 310 194 L344 270 Z" fill="#fff"/>
  <!-- windshield -->
  <path d="M210 270 L236 206 C240 196 250 190 260 190 L252 190 C262 190 272 196 276 206 L302 270 Z" fill="#d83f45" opacity="0.7"/>
  <!-- wheels -->
  <circle cx="164" cy="362" r="42" fill="#333"/>
  <circle cx="348" cy="362" r="42" fill="#333"/>
  <circle cx="164" cy="362" r="20" fill="#d83f45"/>
  <circle cx="348" cy="362" r="20" fill="#d83f45"/>
  <circle cx="164" cy="362" r="8" fill="#fff" opacity="0.6"/>
  <circle cx="348" cy="362" r="8" fill="#fff" opacity="0.6"/>
  <!-- headlights -->
  <rect x="80" y="295" width="32" height="18" rx="6" fill="#fef08a"/>
  <rect x="400" y="295" width="32" height="18" rx="6" fill="#fef08a"/>
</svg>
